<svg width="7" height="13" viewBox="0 0 7 13" fill="none" xmlns="http://www.w3.org/2000/svg">
<path d="M1.0645 6.43821e-05C1.20144 -0.000401953 1.33675 0.0298229 1.46048 0.0885158C1.58421 0.147209 1.69322 0.232879 1.7795 0.339231L6.207 5.83923C6.34182 6.00325 6.41553 6.20899 6.41553 6.42131C6.41553 6.63364 6.34182 6.83938 6.207 7.0034L1.62366 12.5034C1.46807 12.6906 1.24448 12.8083 1.00209 12.8307C0.759703 12.853 0.518362 12.7782 0.331163 12.6226C0.143964 12.467 0.0262423 12.2434 0.0038944 12.001C-0.018454 11.7586 0.0564028 11.5173 0.211996 11.3301L4.3095 6.41673L0.349498 1.5034C0.237405 1.36884 0.166201 1.205 0.144311 1.03125C0.122422 0.857493 0.150762 0.681104 0.22598 0.522953C0.301198 0.364803 0.420145 0.23151 0.568746 0.138843C0.717347 0.0461774 0.889383 -0.00198222 1.0645 6.43821e-05Z" fill="#30302E"/>
</svg>
