<svg width="7" height="14" viewBox="0 0 7 14" fill="none" xmlns="http://www.w3.org/2000/svg">
<path  d="M1.32255 0.583305C1.4595 0.582839 1.59481 0.613063 1.71854 0.671756C1.84227 0.730449 1.95128 0.81612 2.03755 0.922472L6.46505 6.42247C6.59988 6.58649 6.67358 6.79223 6.67358 7.00455C6.67358 7.21688 6.59988 7.42262 6.46505 7.58664L1.88172 13.0866C1.72613 13.2738 1.50254 13.3916 1.26015 13.4139C1.01776 13.4363 0.776418 13.3614 0.58922 13.2058C0.402021 13.0502 0.284299 12.8266 0.261951 12.5842C0.239603 12.3418 0.314459 12.1005 0.470053 11.9133L4.56755 6.99997L0.607554 2.08664C0.495462 1.95208 0.424257 1.78824 0.402368 1.61449C0.380478 1.44073 0.408819 1.26434 0.484037 1.10619C0.559255 0.948043 0.678201 0.81475 0.826802 0.722084C0.975403 0.629418 1.14744 0.581258 1.32255 0.583305Z" fill="white"/>
</svg>
