<svg width="15" height="15" viewBox="0 0 15 15" fill="none" xmlns="http://www.w3.org/2000/svg">
<path d="M12.9703 14.8153L12.9516 14.8116C11.2359 14.4712 10.1878 14.0222 9.70031 13.7756C8.98257 13.9671 8.24283 14.0635 7.5 14.0625C3.35812 14.0625 0 11.1244 0 7.5C0 3.87563 3.35812 0.9375 7.5 0.9375C11.6419 0.9375 15 3.87563 15 7.5C15 9.15 14.3034 10.6594 13.1531 11.8125C13.2336 12.5532 13.3984 13.2823 13.6444 13.9856L13.6472 13.9959C13.7171 14.1974 13.7934 14.3965 13.8759 14.5931C13.95 14.7675 13.8066 14.9625 13.62 14.9325C13.4028 14.897 13.1862 14.8579 12.9703 14.8153V14.8153ZM12.2203 11.9016C12.2072 11.7643 12.2245 11.6258 12.271 11.496C12.3175 11.3663 12.3921 11.2483 12.4894 11.1506C13.4831 10.1531 14.0625 8.87625 14.0625 7.5C14.0625 4.5075 11.2463 1.875 7.5 1.875C3.75375 1.875 0.9375 4.5075 0.9375 7.5C0.9375 10.4934 3.75375 13.125 7.5 13.125C8.16084 13.126 8.81896 13.0402 9.4575 12.87C9.68065 12.8102 9.91801 12.8349 10.1241 12.9394C10.4869 13.1231 11.2866 13.4737 12.5934 13.7766C12.4111 13.1645 12.2862 12.5368 12.2203 11.9016V11.9016Z" fill="#ACB7EB"/>
</svg>
