<svg width="13" height="7" viewBox="0 0 13 7" fill="none" xmlns="http://www.w3.org/2000/svg">
<path d="M12.8345 1.0645C12.8349 1.20144 12.8047 1.33675 12.746 1.46048C12.6873 1.58421 12.6017 1.69322 12.4953 1.7795L6.99531 6.207C6.83129 6.34182 6.62555 6.41553 6.41323 6.41553C6.20091 6.41553 5.99517 6.34182 5.83115 6.207L0.331148 1.62366C0.143949 1.46807 0.0262267 1.24448 0.00387864 1.00209C-0.0184695 0.759703 0.0563873 0.518362 0.211981 0.331163C0.367575 0.143964 0.59116 0.0262422 0.833551 0.00389429C1.07594 -0.0184541 1.31728 0.0564026 1.50448 0.211996L6.41781 4.3095L11.3311 0.349496C11.4657 0.237403 11.6295 0.166199 11.8033 0.144309C11.9771 0.12242 12.1534 0.150761 12.3116 0.225978C12.4697 0.301197 12.603 0.420143 12.6957 0.568744C12.7884 0.717345 12.8365 0.889381 12.8345 1.0645Z" fill="white"/>
</svg>
