<svg width="18" height="18" viewBox="0 0 18 18" fill="none" xmlns="http://www.w3.org/2000/svg">
<path d="M7.54163 7.33334C7.54557 7.19412 7.52155 7.05553 7.47099 6.92576C7.42043 6.79598 7.34437 6.67767 7.24729 6.5778C7.15021 6.47794 7.03409 6.39856 6.9058 6.34435C6.77751 6.29014 6.63965 6.26222 6.50038 6.26222C6.3611 6.26222 6.22324 6.29014 6.09495 6.34435C5.96666 6.39856 5.85054 6.47794 5.75346 6.5778C5.65639 6.67767 5.58032 6.79598 5.52976 6.92576C5.47921 7.05553 5.45519 7.19412 5.45913 7.33334C5.46679 7.6044 5.57986 7.86178 5.7743 8.05079C5.96873 8.23981 6.22921 8.34555 6.50038 8.34555C6.77154 8.34555 7.03202 8.23981 7.22646 8.05079C7.42089 7.86178 7.53396 7.6044 7.54163 7.33334ZM12.5416 7.33334C12.5456 7.19412 12.5215 7.05553 12.471 6.92576C12.4204 6.79598 12.3444 6.67767 12.2473 6.5778C12.1502 6.47794 12.0341 6.39856 11.9058 6.34435C11.7775 6.29014 11.6396 6.26222 11.5004 6.26222C11.3611 6.26222 11.2232 6.29014 11.095 6.34435C10.9667 6.39856 10.8505 6.47794 10.7535 6.5778C10.6564 6.67767 10.5803 6.79598 10.5298 6.92576C10.4792 7.05553 10.4552 7.19412 10.4591 7.33334C10.4668 7.6044 10.5799 7.86178 10.7743 8.05079C10.9687 8.23981 11.2292 8.34555 11.5004 8.34555C11.7715 8.34555 12.032 8.23981 12.2265 8.05079C12.4209 7.86178 12.534 7.6044 12.5416 7.33334ZM7.44663 11.5883C7.30459 11.505 7.1354 11.481 6.97582 11.5217C6.81623 11.5624 6.67916 11.6645 6.5944 11.8057C6.50963 11.9469 6.48403 12.1158 6.52314 12.2758C6.56226 12.4358 6.66294 12.5739 6.80329 12.66C7.44246 13.0433 8.23663 13.2183 8.99996 13.2183C9.76329 13.2183 10.5583 13.0433 11.1966 12.66C11.2679 12.6182 11.3301 12.5627 11.3797 12.4967C11.4294 12.4307 11.4655 12.3555 11.4859 12.2754C11.5063 12.1954 11.5106 12.1121 11.4987 12.0304C11.4867 11.9487 11.4586 11.8701 11.4161 11.7993C11.3736 11.7285 11.3175 11.6668 11.251 11.6178C11.1845 11.5688 11.1089 11.5335 11.0287 11.5139C10.9485 11.4943 10.8651 11.4907 10.7835 11.5035C10.7019 11.5163 10.6237 11.5451 10.5533 11.5883C10.1508 11.83 9.59163 11.9683 8.99996 11.9683C8.40829 11.9683 7.84996 11.83 7.44663 11.5883ZM17.335 9.00001C17.335 4.39668 13.6033 0.665009 8.99996 0.665009C4.39663 0.665009 0.666626 4.39668 0.666626 9.00001C0.665793 13.6025 4.39663 17.3333 8.99996 17.3333C13.6033 17.3333 17.335 13.6017 17.335 8.99918V9.00001ZM1.91579 9.00001C1.90563 8.06318 2.08138 7.13364 2.43285 6.26519C2.78433 5.39674 3.30456 4.60662 3.96343 3.94056C4.6223 3.2745 5.40674 2.74573 6.27133 2.38486C7.13592 2.02399 8.06349 1.83817 9.00038 1.83817C9.93726 1.83817 10.8648 2.02399 11.7294 2.38486C12.594 2.74573 13.3784 3.2745 14.0373 3.94056C14.6962 4.60662 15.2164 5.39674 15.5679 6.26519C15.9194 7.13364 16.0951 8.06318 16.085 9.00001C16.0647 10.8656 15.3094 12.648 13.983 13.9601C12.6566 15.2722 10.8661 16.0082 9.00038 16.0082C7.13463 16.0082 5.34418 15.2722 4.01777 13.9601C2.69135 12.648 1.93603 10.8656 1.91579 9.00001Z" fill="#002851"/>
</svg>
