<svg width="27" height="27" viewBox="0 0 27 27" fill="none" xmlns="http://www.w3.org/2000/svg">
<path d="M13.5 4C8.24932 4 4 8.24891 4 13.5C4 18.7507 8.24891 23 13.5 23C18.7507 23 23 18.7511 23 13.5C23 8.24928 18.7511 4 13.5 4ZM13.5 21.5156C9.06973 21.5156 5.48438 17.9306 5.48438 13.5C5.48438 9.0697 9.0694 5.48438 13.5 5.48438C17.9303 5.48438 21.5156 9.0694 21.5156 13.5C21.5156 17.9303 17.9306 21.5156 13.5 21.5156Z" fill="white"/>
<path d="M16.7502 15.7005L14.5495 13.4999L16.7502 11.2992C17.04 11.0094 17.04 10.5395 16.7502 10.2496C16.4603 9.95976 15.9904 9.9598 15.7006 10.2496L13.4999 12.4503L11.2992 10.2496C11.0094 9.95976 10.5394 9.95976 10.2496 10.2496C9.95978 10.5395 9.95978 11.0094 10.2496 11.2992L12.4503 13.4999L10.2496 15.7005C9.95978 15.9904 9.95974 16.4603 10.2496 16.7502C10.5395 17.0401 11.0095 17.0399 11.2992 16.7502L13.4999 14.5495L15.7006 16.7502C15.9904 17.04 16.4603 17.04 16.7502 16.7502C17.0401 16.4603 17.04 15.9904 16.7502 15.7005Z" fill="white"/>
</svg>
