<svg width="15" height="14" viewBox="0 0 15 14" fill="none" xmlns="http://www.w3.org/2000/svg">
<path d="M2.54386 14C1.89084 14 1.31092 13.7554 0.804094 13.2662C0.268031 12.7488 0 12.1209 0 11.3824C0 10.6439 0.268031 10.0159 0.804094 9.49853L9.21053 0.890715C9.63938 0.467379 10.134 0.194563 10.6944 0.0722663C11.2549 -0.0500305 11.8226 -0.0171045 12.3977 0.171045C12.9727 0.359194 13.5039 0.683751 13.9912 1.14472C14.1472 1.30464 14.2909 1.48103 14.4225 1.67389C14.5541 1.86674 14.6613 2.069 14.7442 2.28067C14.827 2.49233 14.8904 2.71576 14.9342 2.95095C14.9781 3.18613 15 3.42132 15 3.65651C14.9805 4.6537 14.6296 5.48626 13.9474 6.15418L7.58772 12.6735C7.5 12.7676 7.39279 12.817 7.26608 12.8217C7.13938 12.8264 7.02973 12.7864 6.93713 12.7018C6.84454 12.6171 6.79581 12.5113 6.79094 12.3843C6.78606 12.2573 6.82749 12.1467 6.9152 12.0527L13.2749 5.53329C13.7914 5.02529 14.0546 4.39499 14.0643 3.64239C14.0741 2.8898 13.8255 2.27361 13.3187 1.79383C13.0068 1.48338 12.6608 1.2482 12.2807 1.08827C11.9006 0.928345 11.4912 0.876604 11.0526 0.933048C10.614 0.989493 10.2242 1.18235 9.88304 1.51161L1.47661 10.1194C1.11598 10.4675 0.935673 10.8861 0.935673 11.3753C0.935673 11.8645 1.11598 12.2831 1.47661 12.6312C1.6423 12.7911 1.82261 12.9111 2.01754 12.9911C2.21248 13.071 2.41715 13.1016 2.63158 13.0828C3.06043 13.064 3.46004 12.8711 3.83041 12.5042L10.5117 5.64618C10.5604 5.59914 10.6067 5.54976 10.6506 5.49801C10.6944 5.44627 10.7407 5.38513 10.7895 5.31457C10.8382 5.24401 10.8772 5.16875 10.9064 5.08879C10.9357 5.00883 10.9552 4.92886 10.9649 4.8489C10.9747 4.76894 10.96 4.68662 10.9211 4.60195C10.8821 4.51729 10.8236 4.43732 10.7456 4.36206C10.5604 4.17392 10.3801 4.08925 10.2047 4.10806C10.0195 4.12688 9.80994 4.24447 9.57602 4.46084L4.54678 9.62553C4.4883 9.68198 4.42008 9.72196 4.34211 9.74548C4.26413 9.769 4.18372 9.77135 4.10088 9.75253C4.01803 9.73372 3.94737 9.69609 3.88889 9.63965C3.79142 9.55498 3.74269 9.4515 3.74269 9.3292C3.74269 9.2069 3.78655 9.09872 3.87427 9.00464L8.90351 3.82584C9.30312 3.44954 9.7076 3.24258 10.117 3.20495C10.5848 3.16732 11.0136 3.33665 11.4035 3.71295C11.7739 4.06103 11.9371 4.47025 11.8933 4.94062C11.8494 5.411 11.6131 5.85315 11.1842 6.26707L4.50292 13.1392C3.95712 13.666 3.34795 13.9483 2.67544 13.9859C2.65595 13.9859 2.63402 13.9882 2.60965 13.9929C2.58528 13.9976 2.56335 14 2.54386 14Z" fill="#ACB7EB"/>
</svg>
