<svg width="14" height="14" viewBox="0 0 14 14" fill="none" xmlns="http://www.w3.org/2000/svg">
<path d="M10.6 0.700012C11.2887 0.699974 11.9514 0.963105 12.4524 1.43557C12.9535 1.90803 13.2551 2.55411 13.2955 3.24161L13.3 3.40001V7.34111C13.2999 7.76371 13.1511 8.17279 12.8797 8.49671L12.7726 8.61371L8.61371 12.7726C8.31489 13.0714 7.92046 13.2556 7.49951 13.2928L7.34111 13.3H3.40001C2.71132 13.3001 2.04865 13.0369 1.54758 12.5645C1.04651 12.092 0.744915 11.4459 0.704512 10.7584L0.700012 10.6V3.40001C0.699974 2.71132 0.963105 2.04865 1.43557 1.54758C1.90803 1.04651 2.55411 0.744915 3.24161 0.704512L3.40001 0.700012H10.6ZM10.6 1.60001H3.40001C2.94589 1.59987 2.5085 1.77138 2.17552 2.08016C1.84254 2.38894 1.63857 2.81217 1.60451 3.26501L1.60001 3.40001V10.6C1.59987 11.0541 1.77138 11.4915 2.08016 11.8245C2.38894 12.1575 2.81217 12.3615 3.26501 12.3955L3.40001 12.4H7.00001V9.70001C6.99997 9.01132 7.2631 8.34865 7.73557 7.84758C8.20803 7.34651 8.85411 7.04492 9.54161 7.00451L9.70001 7.00001H12.4V3.40001C12.4002 2.94589 12.2286 2.5085 11.9199 2.17552C11.6111 1.84254 11.1879 1.63857 10.735 1.60451L10.6 1.60001ZM12.2047 7.90091L9.70001 7.90001C9.24589 7.89987 8.8085 8.07138 8.47552 8.38016C8.14254 8.68894 7.93857 9.11217 7.90451 9.56501L7.90001 9.70001V12.2029L7.97741 12.1363L12.1363 7.97741C12.1606 7.95311 12.1831 7.92791 12.2038 7.90091H12.2047Z" fill="#ACB7EB"/>
</svg>
