<svg width="22" height="20" viewBox="0 0 22 20" fill="none" xmlns="http://www.w3.org/2000/svg">
<path d="M11.868 11C12.5642 11 13.2319 11.2766 13.7242 11.7688C14.2164 12.2611 14.493 12.9288 14.493 13.625L14.4912 14.934C14.6715 18.1488 12.1952 19.7518 7.605 19.7518C3.0305 19.75 0.5 18.1698 0.5 14.9812V13.625C0.5 12.9288 0.776562 12.2611 1.26884 11.7688C1.76113 11.2766 2.42881 11 3.125 11H11.868ZM18.868 11C19.5642 11 20.2319 11.2766 20.7242 11.7688C21.2164 12.2611 21.493 12.9288 21.493 13.625V14.5473C21.6505 17.4295 19.463 18.875 15.466 18.875C14.9235 18.875 14.4125 18.8487 13.9365 18.7962C14.444 18.3272 14.8237 17.769 15.0652 17.1197L15.466 17.125C18.588 17.125 19.8357 16.3007 19.743 14.5945V13.625C19.743 13.3929 19.6508 13.1704 19.4867 13.0063C19.3226 12.8422 19.1001 12.75 18.868 12.75H15.2577C15.0821 12.0721 14.7072 11.4625 14.1815 11H18.868ZM11.868 12.75H3.125C2.89294 12.75 2.67038 12.8422 2.50628 13.0063C2.34219 13.1704 2.25 13.3929 2.25 13.625V14.9812C2.25 16.985 3.874 18 7.605 18C11.322 18 12.855 17.0077 12.743 14.9812V13.625C12.743 13.3929 12.6508 13.1704 12.4867 13.0063C12.3226 12.8422 12.1001 12.75 11.868 12.75ZM7.5 0.5C8.66032 0.5 9.77312 0.960936 10.5936 1.78141C11.4141 2.60188 11.875 3.71468 11.875 4.875C11.875 6.03532 11.4141 7.14812 10.5936 7.96859C9.77312 8.78906 8.66032 9.25 7.5 9.25C6.33968 9.25 5.22688 8.78906 4.40641 7.96859C3.58594 7.14812 3.125 6.03532 3.125 4.875C3.125 3.71468 3.58594 2.60188 4.40641 1.78141C5.22688 0.960936 6.33968 0.5 7.5 0.5ZM16.25 2.25C17.1783 2.25 18.0685 2.61875 18.7249 3.27513C19.3812 3.9315 19.75 4.82174 19.75 5.75C19.75 6.67826 19.3812 7.5685 18.7249 8.22487C18.0685 8.88125 17.1783 9.25 16.25 9.25C15.3217 9.25 14.4315 8.88125 13.7751 8.22487C13.1187 7.5685 12.75 6.67826 12.75 5.75C12.75 4.82174 13.1187 3.9315 13.7751 3.27513C14.4315 2.61875 15.3217 2.25 16.25 2.25ZM7.5 2.25C6.80381 2.25 6.13613 2.52656 5.64384 3.01884C5.15156 3.51113 4.875 4.17881 4.875 4.875C4.875 5.57119 5.15156 6.23887 5.64384 6.73116C6.13613 7.22344 6.80381 7.5 7.5 7.5C8.19619 7.5 8.86387 7.22344 9.35616 6.73116C9.84844 6.23887 10.125 5.57119 10.125 4.875C10.125 4.17881 9.84844 3.51113 9.35616 3.01884C8.86387 2.52656 8.19619 2.25 7.5 2.25ZM16.25 4C15.7859 4 15.3408 4.18437 15.0126 4.51256C14.6844 4.84075 14.5 5.28587 14.5 5.75C14.5 6.21413 14.6844 6.65925 15.0126 6.98744C15.3408 7.31563 15.7859 7.5 16.25 7.5C16.7141 7.5 17.1592 7.31563 17.4874 6.98744C17.8156 6.65925 18 6.21413 18 5.75C18 5.28587 17.8156 4.84075 17.4874 4.51256C17.1592 4.18437 16.7141 4 16.25 4Z" fill="#ACB7EB"/>
</svg>
