<svg width="5" height="10" viewBox="0 0 5 10" fill="none" xmlns="http://www.w3.org/2000/svg">
<path d="M0.829616 4.92265e-05C0.936345 -0.000314114 1.0418 0.023235 1.13823 0.0689656C1.23466 0.114696 1.31962 0.181446 1.38686 0.264311L4.83748 4.54962C4.94256 4.67742 5 4.83772 5 5.00315C5 5.16858 4.94256 5.32888 4.83748 5.45668L1.26541 9.74199C1.14414 9.88784 0.96989 9.97956 0.780981 9.99698C0.592071 10.0144 0.403979 9.95607 0.258083 9.83483C0.112188 9.7136 0.0204401 9.5394 0.00302273 9.35054C-0.0143942 9.16168 0.0439459 8.97364 0.165209 8.82779L3.35864 4.99958L0.272373 1.17137C0.185012 1.06653 0.129518 0.93887 0.112459 0.803491C0.0953988 0.668112 0.117486 0.530679 0.176108 0.407457C0.23473 0.284235 0.327432 0.180379 0.443246 0.108179C0.55906 0.0359779 0.693139 -0.00154533 0.829616 4.92265e-05Z" fill="#ACB7EB"/>
</svg>
