<svg width="16" height="16" viewBox="0 0 16 16" fill="none" xmlns="http://www.w3.org/2000/svg">
<path d="M1.125 14.25H14.875C15.0408 14.25 15.1997 14.3158 15.3169 14.4331C15.4342 14.5503 15.5 14.7092 15.5 14.875C15.5 15.0408 15.4342 15.1997 15.3169 15.3169C15.1997 15.4342 15.0408 15.5 14.875 15.5H1.125C0.95924 15.5 0.800269 15.4342 0.683058 15.3169C0.565848 15.1997 0.5 15.0408 0.5 14.875C0.5 14.7092 0.565848 14.5503 0.683058 14.4331C0.800269 14.3158 0.95924 14.25 1.125 14.25ZM8.625 2.955V11.75H7.375V2.83L2.63375 7.57125L1.75 6.6875L7.9375 0.5L14.125 6.6875L13.24 7.57125L8.625 2.955Z" fill="white"/>
</svg>
